<svg xmlns="http://www.w3.org/2000/svg" viewBox="0 0 512 512">
  <rect width="512" height="512" rx="112" fill="#050914"/>
  <path d="M256 72c30 0 54 24 54 54 0 21-12 39-29 48 9-17 27-29 48-29 30 0 54 24 54 54s-24 54-54 54c-21 0-39-12-48-29 17 9 29 27 29 48 0 30-24 54-54 54s-54-24-54-54c0-21 12-39 29-48-17 9-35 29-48 29-30 0-54-24-54-54s24-54 54-54c21 0 39 12 48 29-17-9-29-27-29-48 0-30 24-54 54-54Z" fill="#fbbf24"/>
  <circle cx="256" cy="256" r="38" fill="#7c3aed"/>
  <path d="M258 157c55 43 89 94 109 153-58-20-110-55-153-109 13-7 27-22 44-44Z" fill="#22c55e" opacity=".92"/>
</svg>
